<?xml version="1.0" standalone="no"?>
<!DOCTYPE svg PUBLIC "-//W3C//DTD SVG 20010904//EN"
 "http://www.w3.org/TR/2001/REC-SVG-20010904/DTD/svg10.dtd">
<svg version="1.0" xmlns="http://www.w3.org/2000/svg"
 width="280.000000pt" height="233.000000pt" viewBox="0 0 280.000000 233.000000"
 preserveAspectRatio="xMidYMid meet">

<g transform="translate(0.000000,233.000000) scale(0.100000,-0.100000)"
fill="#000000" stroke="none">
<path d="M1330 2153 c-22 -35 -28 -55 -24 -75 7 -36 -1 -35 -33 2 -26 32 -43
38 -43 18 -1 -36 -16 -39 -64 -12 -26 14 -49 24 -51 22 -3 -3 6 -38 20 -78 14
-41 22 -77 18 -80 -23 -19 -250 -78 -321 -83 -38 -3 -47 1 -96 45 -61 54 -108
122 -142 206 l-23 57 -15 -37 c-20 -47 -20 -128 -2 -173 20 -48 6 -44 -34 10
-19 25 -36 45 -38 45 -3 0 -2 -29 0 -64 4 -44 14 -80 32 -112 14 -26 24 -49
22 -51 -2 -2 -20 10 -40 27 -43 38 -46 27 -15 -56 12 -32 40 -77 63 -102 l41
-44 -39 16 c-50 21 -49 21 -32 -13 26 -50 67 -91 120 -121 l51 -30 -49 0 -49
0 24 -26 c26 -28 78 -57 122 -68 31 -7 27 -26 -6 -26 -21 -1 -21 -1 4 -23 23
-19 27 -33 33 -99 9 -102 29 -176 72 -261 l35 -70 -38 -41 c-21 -23 -80 -85
-133 -139 -52 -53 -92 -97 -88 -97 4 0 78 38 164 85 87 47 162 85 166 85 4 0
8 -18 8 -40 0 -44 3 -46 39 -26 22 12 28 10 68 -20 58 -44 169 -109 250 -146
l64 -29 102 53 c229 117 346 224 427 386 16 33 30 68 30 76 0 8 51 63 113 121
61 59 108 105 102 102 -23 -11 -132 -60 -152 -68 -22 -8 -23 -7 -23 51 0 57 1
60 33 77 32 17 32 17 7 21 -39 6 -46 20 -14 28 45 11 96 39 123 68 l24 26 -49
0 -49 1 45 23 c55 29 96 69 121 118 22 43 20 44 -21 23 -40 -21 -38 -12 9 42
38 43 71 115 71 157 0 18 -4 16 -33 -12 -18 -18 -35 -32 -38 -32 -3 0 7 25 23
56 22 45 28 70 27 118 0 60 0 61 -17 36 -9 -13 -27 -36 -40 -50 l-24 -25 7 25
c15 55 17 133 5 175 -12 42 -30 61 -30 32 0 -7 -16 -46 -35 -86 -25 -52 -55
-93 -103 -141 l-67 -67 -60 8 c-111 13 -295 66 -302 86 -3 8 4 44 16 80 12 36
20 68 17 70 -3 3 -26 -7 -52 -21 -48 -27 -63 -24 -64 12 0 19 -12 14 -47 -20
-24 -23 -33 -28 -33 -16 0 9 4 20 10 23 9 6 -42 99 -61 110 -4 3 -22 -16 -39
-42z m55 -23 c8 -16 13 -40 10 -53 -5 -17 3 -34 33 -67 l39 -44 36 23 c20 12
37 30 37 39 0 10 9 23 20 30 11 7 20 11 20 10 0 -2 -11 -37 -23 -78 l-24 -75
-94 -6 c-52 -4 -126 -7 -166 -8 l-71 -1 -26 78 c-31 93 -31 96 -6 82 11 -6 20
-19 20 -30 0 -17 55 -60 77 -60 5 0 23 19 41 42 23 30 31 49 27 66 -5 19 18
82 30 82 2 0 11 -13 20 -30z m-692 -208 c34 -35 77 -72 95 -83 18 -12 32 -29
32 -40 0 -11 5 -29 10 -40 14 -24 5 -24 -27 0 -13 11 -30 18 -37 15 -6 -2 -40
20 -73 51 -75 68 -123 155 -123 224 l0 46 31 -55 c16 -30 58 -83 92 -118z
m1453 44 c-29 -74 -158 -208 -185 -192 -4 3 -17 -1 -27 -9 -27 -21 -31 -19
-26 15 3 22 20 43 69 80 65 52 157 165 171 210 6 21 7 18 10 -19 2 -25 -4 -63
-12 -85z m-872 71 c8 -12 7 -20 -2 -29 -17 -17 -45 11 -36 36 8 20 23 17 38
-7z m213 -4 c-3 -30 -24 -43 -33 -19 -6 16 11 46 27 46 4 0 7 -12 6 -27z
m-782 -259 c64 -42 82 -59 91 -87 10 -34 10 -35 -12 -27 -138 53 -244 152
-268 253 -6 25 -1 22 51 -29 32 -32 94 -81 138 -110z m1493 89 c-31 -62 -92
-122 -167 -162 -65 -34 -74 -35 -38 0 l22 21 -32 -16 c-18 -9 -33 -23 -33 -31
0 -8 -4 -15 -9 -15 -15 0 6 64 25 75 99 63 145 97 193 144 62 62 75 56 39 -16z
m-668 7 c0 -6 -62 -10 -165 -10 -103 0 -165 4 -165 10 0 6 62 10 165 10 103 0
165 -4 165 -10z m-477 -192 c33 -31 37 -40 37 -82 0 -39 5 -53 29 -77 16 -16
39 -29 51 -29 16 0 20 -4 16 -16 -3 -9 -6 -22 -6 -30 0 -23 -34 -16 -78 16
-35 25 -44 40 -62 100 -20 66 -24 72 -79 109 -62 42 -111 94 -111 116 0 19
154 -63 203 -107z m813 73 c-9 -16 -37 -44 -64 -62 -71 -48 -102 -80 -102
-106 0 -68 -69 -146 -123 -141 -23 2 -31 8 -32 26 -1 15 4 22 17 22 10 0 32
12 48 28 25 22 32 36 35 76 1 27 11 59 21 73 20 26 207 133 212 121 2 -4 -4
-20 -12 -37z m-400 14 c16 -12 17 -16 5 -24 -8 -5 -29 -7 -47 -4 -18 3 -41 2
-51 -1 -15 -6 -14 -9 8 -20 50 -26 79 -25 96 0 25 39 93 28 93 -15 0 -13 -13
-16 -65 -15 -61 1 -66 -1 -88 -30 -37 -49 -42 -63 -15 -38 32 29 38 28 38 -7
0 -15 12 -46 26 -67 15 -21 20 -33 12 -26 -8 6 -18 9 -21 5 -4 -3 -7 1 -7 10
0 9 -4 17 -9 17 -5 0 -7 -17 -4 -39 6 -42 -13 -93 -27 -71 -5 9 -13 1 -25 -24
-20 -42 -30 -39 -55 16 -16 36 -19 38 -28 22 -15 -26 -26 -10 -27 36 0 22 -1
40 -3 40 -1 0 -15 -8 -29 -17 -22 -15 -26 -15 -21 -3 3 8 13 39 22 67 10 29
22 55 27 58 15 10 10 25 -6 19 -25 -10 -17 13 15 39 28 24 29 26 10 32 -29 9
-24 25 8 25 15 0 45 7 67 15 52 18 77 18 101 0z m745 -29 c-43 -69 -156 -142
-249 -161 -32 -7 -34 -6 -27 16 12 38 21 45 103 79 43 17 102 49 132 69 30 21
57 36 59 35 2 -2 -6 -19 -18 -38z m-1541 -52 c127 -60 125 -59 128 -78 14 -69
-201 21 -262 111 -35 50 -33 59 7 33 17 -12 75 -42 127 -66z m760 36 c0 -5 -5
-10 -11 -10 -5 0 -7 5 -4 10 3 6 8 10 11 10 2 0 4 -4 4 -10z m-456 -99 c12
-13 14 -21 7 -21 -7 0 -9 -5 -6 -10 4 -6 -20 1 -51 15 -32 14 -59 27 -59 28
-1 1 -11 15 -23 31 -12 16 -22 32 -22 37 0 12 133 -56 154 -80z m929 57 c-17
-31 -120 -94 -133 -82 -2 3 2 9 10 14 12 8 11 10 -4 10 -13 0 -16 3 -10 9 11
12 136 79 147 80 5 1 1 -14 -10 -31z m-991 -93 c31 -10 65 -26 74 -36 16 -18
16 -19 -25 -19 -46 0 -73 11 -108 43 -25 22 -31 42 -10 34 6 -3 38 -13 69 -22z
m988 17 c0 -19 -50 -54 -95 -68 -62 -18 -73 -18 -49 2 16 13 16 15 2 10 -29
-9 -20 11 10 22 32 12 114 39 125 41 4 0 7 -3 7 -7z m-1183 -47 c111 -24 109
-23 122 -52 l12 -26 -68 7 c-76 8 -133 30 -180 70 -43 36 -42 50 1 32 19 -8
70 -22 113 -31z m1412 2 c-69 -63 -138 -81 -199 -51 -40 21 -32 26 70 47 41 9
93 23 115 31 62 23 64 19 14 -27z m-1166 -53 c33 -5 47 -12 50 -25 4 -15 0
-19 -24 -19 -34 0 -93 22 -103 39 -8 13 11 14 77 5z m891 -5 c-18 -29 -134
-53 -148 -30 -13 21 32 36 117 40 26 1 36 -3 31 -10z m-576 -87 c7 -12 17 -20
23 -17 5 4 21 -8 36 -25 l26 -31 39 38 c22 21 47 52 56 68 l16 30 11 -40 c19
-62 1 -135 -31 -135 -9 0 -13 5 -9 13 4 6 -14 -10 -39 -37 l-45 -50 -23 29
c-13 16 -29 38 -36 49 -12 19 -12 18 -6 -13 4 -23 3 -31 -5 -27 -12 8 -15 -5
-3 -20 4 -5 -1 -1 -11 10 -10 11 -16 28 -13 39 2 10 -4 33 -15 50 l-19 32 5
-35 6 -35 -20 35 c-28 49 -28 113 2 133 21 14 23 13 32 -12 6 -14 16 -36 23
-49z m241 -5 c0 -33 -2 -38 -9 -22 -12 28 -12 78 0 70 6 -3 10 -25 9 -48z
m-644 33 c-11 -5 -32 -9 -47 -9 -29 -1 -38 -15 -15 -24 6 -3 -7 -6 -31 -6 -23
-1 -59 7 -80 16 l-37 17 50 6 c78 10 184 10 160 0z m1195 -1 c0 -9 -45 -27
-87 -34 -28 -5 -34 -4 -23 4 12 9 10 11 -10 12 -14 0 -43 7 -65 14 -38 13 -34
13 72 12 62 -1 113 -5 113 -8z m-1010 -9 c0 -18 -42 -32 -76 -25 -62 11 -36
29 49 34 15 0 27 -3 27 -9z m705 0 l30 -7 -29 -12 c-35 -14 -86 -5 -86 15 0
15 33 17 85 4z m-825 -55 c0 -8 -5 -15 -11 -15 -5 0 -8 -4 -5 -9 13 -20 -82
-38 -132 -25 -18 5 -7 12 55 34 94 34 93 34 93 15z m141 0 c-1 -12 -61 -16
-61 -5 0 9 28 19 48 16 7 0 13 -5 13 -11z m804 -14 c66 -24 75 -30 56 -36 -28
-9 -111 3 -111 15 0 5 -7 6 -17 3 -11 -4 -14 -3 -9 5 4 7 1 12 -8 12 -17 0
-21 12 -9 23 9 10 9 10 98 -22z m-180 9 c8 -13 -35 -13 -55 0 -11 7 -7 10 17
10 17 0 35 -4 38 -10z m-91 -15 c11 -8 17 -17 14 -20 -3 -3 -16 3 -29 14 -27
23 -14 28 15 6z m-492 -17 c-6 -6 -15 -8 -19 -4 -4 4 -1 11 7 16 8 5 17 7 19
4 3 -2 -1 -10 -7 -16z m-142 -32 c-19 -18 -48 -37 -65 -41 -35 -8 -33 -6 31
40 62 44 79 45 34 1z m818 -10 c48 -33 48 -44 2 -27 -30 10 -69 46 -70 64 0 9
5 6 68 -37z m-732 -18 c-1 -23 -29 -47 -55 -48 -9 0 -1 14 19 35 19 19 35 35
35 35 1 0 1 -10 1 -22z m635 -13 c24 -22 33 -35 24 -35 -23 0 -75 29 -75 41 0
6 6 7 13 3 8 -5 8 -2 -2 9 -23 29 0 19 40 -18z m-221 4 c-7 -11 -14 -19 -16
-16 -7 7 7 37 17 37 6 0 5 -9 -1 -21z m141 -31 c6 -12 6 -18 0 -18 -9 0 -41
55 -41 69 1 7 27 -27 41 -51z m-490 8 c-6 -14 -15 -26 -21 -26 -6 0 -4 13 5
31 19 36 30 33 16 -5z m385 -41 c9 -13 20 -41 24 -61 7 -31 6 -35 -8 -29 -36
15 -52 17 -52 6 0 -7 -5 -9 -10 -6 -6 4 -7 12 -1 23 5 10 5 24 -2 39 -7 16 -7
26 3 38 17 21 27 19 46 -10z m-253 -6 c10 -13 12 -30 8 -47 -6 -21 -15 -28
-45 -33 -38 -6 -38 -6 -32 24 7 35 32 77 46 77 5 0 15 -9 23 -21z m702 -66
c-27 -25 -97 -89 -155 -143 l-105 -98 3 54 c2 30 1 54 -3 54 -3 0 -26 -14 -50
-30 l-44 -31 17 30 c16 29 16 31 -5 60 l-23 30 92 50 c50 28 93 51 96 51 2 0
2 -18 -2 -40 -3 -22 -4 -40 -2 -40 2 0 53 22 113 50 59 27 110 49 113 49 3 0
-17 -20 -45 -46z m-734 -46 c-1 -4 -1 -19 -1 -34 0 -27 0 -27 -15 -6 -15 22
-10 56 7 51 5 -2 9 -7 9 -11z m290 -36 c-16 -30 -26 -26 -25 9 2 45 3 46 20
28 13 -12 14 -20 5 -37z m-85 14 c28 -11 35 -19 32 -37 -3 -21 1 -23 30 -20
30 3 33 1 27 -17 -4 -15 -2 -21 8 -21 10 0 19 -18 27 -50 16 -67 -6 -135 -60
-184 -58 -52 -122 -67 -190 -42 -29 10 -44 10 -83 -2 -27 -7 -50 -12 -52 -10
-2 2 1 25 7 52 7 35 7 60 -2 92 -15 51 -5 133 16 141 8 3 14 14 14 24 0 14 7
19 25 19 19 0 25 5 25 20 0 43 107 64 176 35z m-256 -25 c0 -16 -4 -30 -9 -30
-12 0 -24 37 -16 50 12 20 25 10 25 -20z m395 0 c0 -13 -6 -25 -12 -27 -9 -3
-13 6 -13 27 0 21 4 30 13 28 6 -3 12 -15 12 -28z m-532 -67 l-6 -57 35 21
c49 29 68 14 61 -48 -5 -44 -8 -47 -73 -87 -37 -23 -70 -42 -74 -42 -3 0 -6
20 -6 45 l0 45 -40 -20 c-22 -11 -43 -19 -47 -18 -5 2 -17 -5 -29 -15 -11 -10
-40 -30 -65 -45 l-44 -26 40 46 c72 82 240 257 247 257 4 1 4 -25 1 -56z m97
22 c0 -14 5 -25 12 -25 6 0 8 -3 5 -6 -4 -4 -13 -1 -22 6 -17 14 -21 50 -5 50
6 0 10 -11 10 -25z m470 6 c0 -19 -17 -38 -25 -29 -7 7 7 48 16 48 5 0 9 -9 9
-19z"/>
<path d="M1352 1988 c-16 -16 -15 -43 2 -57 21 -17 49 24 35 51 -11 21 -20 23
-37 6z"/>
<path d="M735 1700 c-3 -5 -1 -10 4 -10 6 0 11 5 11 10 0 6 -2 10 -4 10 -3 0
-8 -4 -11 -10z"/>
<path d="M1563 1453 c9 -2 23 -2 30 0 6 3 -1 5 -18 5 -16 0 -22 -2 -12 -5z"/>
<path d="M1412 1618 c-7 -7 -12 -23 -12 -37 0 -30 8 -23 20 18 10 35 9 36 -8
19z"/>
<path d="M780 1500 c36 -11 50 -11 50 0 0 6 -17 10 -37 9 -34 -1 -35 -2 -13
-9z"/>
<path d="M1300 836 c0 -2 14 -14 30 -26 17 -12 30 -19 30 -16 0 2 -13 14 -30
26 -16 12 -30 19 -30 16z"/>
<path d="M1462 770 c-18 -17 -29 -30 -25 -30 9 0 63 48 63 55 0 8 -4 6 -38
-25z"/>
<path d="M1425 780 c-16 -7 -17 -9 -3 -9 9 -1 20 4 23 9 7 11 7 11 -20 0z"/>
<path d="M1237 749 c7 -7 15 -10 18 -7 3 3 -2 9 -12 12 -14 6 -15 5 -6 -5z"/>
<path d="M1975 429 c-22 -42 -11 -48 25 -14 35 34 38 45 10 45 -12 0 -26 -12
-35 -31z"/>
<path d="M2264 436 c-9 -24 4 -48 23 -44 24 4 24 52 0 56 -9 2 -20 -4 -23 -12z"/>
<path d="M193 419 c14 -8 17 -26 17 -115 0 -84 -3 -106 -15 -110 -27 -11 -16
-19 25 -19 42 0 51 8 25 23 -13 7 -15 25 -13 97 l3 88 73 -107 c40 -58 80
-106 88 -106 11 0 14 22 14 116 0 100 3 119 18 130 15 12 12 13 -27 14 -36 0
-42 -2 -32 -14 7 -9 11 -41 9 -84 l-3 -70 -55 83 -55 84 -45 0 c-35 0 -41 -2
-27 -10z"/>
<path d="M1203 419 c14 -8 17 -25 17 -114 0 -89 -3 -106 -17 -114 -21 -12 -22
-12 40 -15 26 -1 47 1 47 6 0 4 -4 8 -10 8 -6 0 -10 43 -10 110 0 93 3 110 18
119 13 8 3 10 -43 10 -46 0 -56 -2 -42 -10z"/>
<path d="M499 347 c-44 -34 -51 -102 -15 -144 21 -24 32 -28 76 -28 65 0 90
25 90 90 0 64 -29 95 -88 95 -26 0 -54 -6 -63 -13z m91 -27 c17 -31 8 -111
-12 -124 -43 -26 -83 53 -58 113 15 37 53 43 70 11z"/>
<path d="M671 344 c8 -9 28 -51 46 -93 17 -42 38 -77 46 -79 9 -2 25 25 47 83
18 47 37 85 41 85 5 0 9 5 9 10 0 6 -14 10 -31 10 -26 0 -29 -3 -24 -21 8 -24
-23 -115 -35 -102 -14 15 -39 103 -29 103 5 0 9 5 9 10 0 6 -21 10 -46 10 -42
0 -45 -2 -33 -16z"/>
<path d="M908 346 c-45 -34 -46 -120 -1 -156 79 -62 188 22 149 115 -8 18 -23
38 -34 44 -28 15 -93 13 -114 -3z m91 -20 c18 -22 10 -117 -11 -130 -41 -26
-76 39 -57 106 8 30 15 38 33 38 13 0 29 -6 35 -14z"/>
<path d="M1330 350 c-12 -7 -12 -10 -1 -10 10 0 12 -18 10 -83 l-4 -82 38 0
c36 0 47 8 27 20 -5 3 -10 30 -10 59 0 41 5 57 21 72 20 18 21 18 35 -1 17
-24 19 -135 2 -135 -26 0 4 -13 34 -15 l33 -2 -3 72 c-3 56 -1 74 12 84 13 11
19 11 32 0 12 -10 15 -28 12 -81 l-3 -68 40 1 c22 0 34 3 28 6 -9 3 -13 26
-13 63 0 86 -12 110 -54 110 -18 0 -39 -7 -46 -15 -11 -13 -14 -13 -27 0 -18
18 -64 20 -82 3 -11 -10 -14 -10 -18 0 -6 14 -42 16 -63 2z"/>
<path d="M1670 350 c-10 -6 -11 -10 -2 -10 17 0 17 -211 0 -228 -9 -9 0 -12
43 -12 47 1 52 2 37 14 -10 7 -18 25 -18 39 0 24 3 25 33 20 26 -4 40 0 63 20
26 22 29 32 29 82 0 44 -4 60 -19 71 -24 17 -68 18 -85 2 -11 -10 -14 -10 -18
0 -6 14 -42 16 -63 2z m122 -27 c39 -35 11 -138 -35 -131 -19 3 -22 10 -25 59
-2 42 1 61 13 73 20 20 24 20 47 -1z"/>
<path d="M1911 334 c-21 -26 -28 -84 -15 -119 8 -19 55 -45 83 -45 24 0 71 20
71 31 0 4 -17 5 -38 2 -29 -4 -41 0 -56 15 -28 31 -16 44 43 48 30 2 56 6 59
8 8 8 -7 54 -24 70 -9 10 -33 16 -59 16 -35 0 -48 -5 -64 -26z m94 -14 c9 -27
-1 -40 -30 -40 -29 0 -39 13 -30 40 9 27 51 27 60 0z"/>
<path d="M2092 351 c-11 -7 -11 -9 2 -14 12 -5 16 -21 16 -71 0 -36 -4 -68
-10 -71 -21 -13 -9 -20 35 -21 44 -1 59 8 30 20 -10 4 -15 20 -15 54 0 53 12
72 47 72 16 0 23 6 23 20 0 26 -18 25 -47 -2 l-23 -21 0 21 c0 16 -6 22 -22
22 -13 0 -29 -4 -36 -9z"/>
<path d="M2251 351 c-11 -7 -11 -9 0 -13 13 -4 15 -110 3 -150 -5 -15 1 -18
35 -18 23 0 41 5 41 10 0 6 -4 10 -10 10 -6 0 -10 35 -10 85 0 82 -1 85 -22
85 -13 0 -29 -4 -37 -9z"/>
<path d="M2399 347 c-70 -54 -35 -177 51 -177 42 0 86 24 94 52 22 83 -13 138
-86 138 -24 0 -50 -6 -59 -13z m91 -26 c5 -11 10 -36 10 -56 0 -46 -15 -75
-40 -75 -26 0 -50 37 -50 78 0 46 16 72 45 72 14 0 29 -8 35 -19z"/>
</g>
</svg>
